solid MAKEROBOT 4WD TT
facet normal -0.21242964514053855 0.9771763637468238 1.5913880602076653e-10
  outer loop
    vertex 314.4968615244261 -2091.16935016273 26.000001371049937
    vertex 337.4968615138446 -2086.16935014182 6.000001437106094
    vertex 314.4968615740268 -2091.1693501540817 6.000001372942889
  endloop
endfacet
facet normal -0.21242964514053855 0.9771763637468238 1.5913880602076653e-10
  outer loop
    vertex 337.4968615138446 -2086.16935014182 6.000001437106094
    vertex 314.4968615244261 -2091.16935016273 26.000001371049937
    vertex 337.4968615138446 -2086.1693501504683 26.000001425542
  endloop
endfacet
facet normal -0.21242964611458406 -0.9771763635350749 1.0163134488346963e-09
  outer loop
    vertex 337.4968615373402 -2101.169350230928 6.000001412956758
    vertex 314.4968615215468 -2096.16935016273 26.00000136888761
    vertex 314.49686158060564 -2096.169350154081 6.000001368887543
  endloop
endfacet
facet normal -0.21242964611458406 -0.9771763635350749 1.0163134488346963e-09
  outer loop
    vertex 314.4968615215468 -2096.16935016273 26.00000136888761
    vertex 337.4968615373402 -2101.169350230928 6.000001412956758
    vertex 337.4968615138446 -2101.16935016273 26.00000141295677
  endloop
endfacet
facet normal -1.0 6.764367267793469e-10 -1.3988815979740276e-09
  outer loop
    vertex 337.4968615138446 -2101.16935016273 26.00000141295677
    vertex 337.49686153087464 -2112.169348955602 6.000001417886464
    vertex 337.4968615123329 -2112.169348955602 26.000001417886494
  endloop
endfacet
facet normal -1.0 6.764367267793469e-10 -1.3988815979740276e-09
  outer loop
    vertex 337.49686153087464 -2112.169348955602 6.000001417886464
    vertex 337.4968615138446 -2101.16935016273 26.00000141295677
    vertex 337.4968615373402 -2101.169350230928 6.000001412956758
  endloop
endfacet
facet normal -9.963278225281448e-09 -0.7933533402910848 0.6087614290089167
  outer loop
    vertex 359.4968614658437 -2133.108688845649 19.939341327315034
    vertex 354.4968615119786 -2132.8703108673976 20.25000141735261
    vertex 354.49686151122484 -2133.1086888012946 19.939341245572788
  endloop
endfacet
facet normal -9.963278225281448e-09 -0.7933533402910848 0.6087614290089167
  outer loop
    vertex 354.4968615119786 -2132.8703108673976 20.25000141735261
    vertex 359.4968614658437 -2133.108688845649 19.939341327315034
    vertex 359.49686146659747 -2132.870310911752 20.25000149909486
  endloop
endfacet
facet normal 9.963278225281448e-09 0.7933533402910848 -0.6087614290089167
  outer loop
    vertex 354.49686148234446 -2135.230009144854 22.060661589132458
    vertex 359.4968614362096 -2135.4683871231055 21.750001499094882
    vertex 354.4968614815907 -2135.468387078751 21.75000141735263
  endloop
endfacet
facet normal 9.963278225281448e-09 0.7933533402910848 -0.6087614290089167
  outer loop
    vertex 359.4968614362096 -2135.4683871231055 21.750001499094882
    vertex 354.49686148234446 -2135.230009144854 22.060661589132458
    vertex 359.49686143696334 -2135.2300091892084 22.060661670874705
  endloop
endfacet
facet normal 1.0121995871258705e-08 0.9238795325113016 -0.38268343236505364
  outer loop
    vertex 354.4968614815907 -2135.468387078751 21.75000141735263
    vertex 359.4968614364913 -2135.618237756862 21.38823006674866
    vertex 354.49686148187243 -2135.618237712508 21.388229985006408
  endloop
endfacet
facet normal 1.0121995871258705e-08 0.9238795325113016 -0.38268343236505364
  outer loop
    vertex 359.4968614364913 -2135.618237756862 21.38823006674866
    vertex 354.4968614815907 -2135.468387078751 21.75000141735263
    vertex 359.4968614362096 -2135.4683871231055 21.750001499094882
  endloop
endfacet
facet normal -9.07622219693334e-09 -1.0 0.0
  outer loop
    vertex 359.4968614514035 -2139.1693490174284 6.000001499094873
    vertex 354.4968614967847 -2139.169348973074 26.000001417352664
    vertex 354.4968614967847 -2139.169348973074 6.000001417352641
  endloop
endfacet
facet normal -9.07622219693334e-09 -1.0 0.0
  outer loop
    vertex 354.4968614967847 -2139.169348973074 26.000001417352664
    vertex 359.4968614514035 -2139.1693490174284 6.000001499094873
    vertex 359.4968614514035 -2139.1693490174284 26.000001499094868
  endloop
endfacet
facet normal 2.846725752831436e-09 4.422119708956062e-10 -1.0
  outer loop
    vertex 337.4968615138446 -2086.16935014182 6.000001437106094
    vertex 314.49686158060564 -2096.169350154081 6.000001368887543
    vertex 314.4968615740268 -2091.1693501540817 6.000001372942889
  endloop
endfacet
facet normal 2.846725752831436e-09 4.422119708956062e-10 -1.0
  outer loop
    vertex 314.49686158060564 -2096.169350154081 6.000001368887543
    vertex 337.4968615138446 -2086.16935014182 6.000001437106094
    vertex 337.4968615373402 -2101.169350230928 6.000001412956758
  endloop
endfacet
facet normal 2.846725752831436e-09 4.422119708956062e-10 -1.0
  outer loop
    vertex 337.4968615373402 -2101.169350230928 6.000001412956758
    vertex 337.4968615138446 -2086.16935014182 6.000001437106094
    vertex 342.4968605977846 -2086.16935014035 6.000001449884871
  endloop
endfacet
facet normal 2.846725752831436e-09 4.422119708956062e-10 -1.0
  outer loop
    vertex 337.4968615373402 -2101.169350230928 6.000001412956758
    vertex 342.4968605977846 -2086.16935014035 6.000001449884871
    vertex 342.496860590614 -2106.1693501403515 6.000001439461736
  endloop
endfacet
facet normal 2.846725752831436e-09 4.422119708956062e-10 -1.0
  outer loop
    vertex 337.49686153087464 -2112.169348955602 6.000001417886464
    vertex 342.496860590614 -2106.1693501403515 6.000001439461736
    vertex 354.49686153087464 -2112.169348973074 6.000001429029188
  endloop
endfacet
facet normal 2.846725752831436e-09 4.422119708956062e-10 -1.0
  outer loop
    vertex 342.496860590614 -2106.1693501403515 6.000001439461736
    vertex 337.49686153087464 -2112.169348955602 6.000001417886464
    vertex 337.4968615373402 -2101.169350230928 6.000001412956758
  endloop
endfacet
facet normal 2.846725752831436e-09 4.422119708956062e-10 -1.0
  outer loop
    vertex 354.49686153087464 -2112.169348973074 6.000001429029188
    vertex 342.496860590614 -2106.1693501403515 6.000001439461736
    vertex 362.4968606277278 -2106.1693501280647 6.0000014990948705
  endloop
endfacet
facet normal 2.846725752831436e-09 4.422119708956062e-10 -1.0
  outer loop
    vertex 354.49686153087464 -2112.169348973074 6.000001429029188
    vertex 362.4968606277278 -2106.1693501280647 6.0000014990948705
    vertex 359.49686163292796 -2129.169348903568 6.000001508345538
  endloop
endfacet
facet normal 2.846725752831436e-09 4.422119708956062e-10 -1.0
  outer loop
    vertex 354.49686153087464 -2112.169348973074 6.000001429029188
    vertex 359.49686163292796 -2129.169348903568 6.000001508345538
    vertex 359.4968614514035 -2139.1693490174284 6.000001499094873
  endloop
endfacet
facet normal 2.846725752831436e-09 4.422119708956062e-10 -1.0
  outer loop
    vertex 359.49686163292796 -2129.169348903568 6.000001508345538
    vertex 362.4968606277278 -2106.1693501280647 6.0000014990948705
    vertex 362.4968606277278 -2129.169348916168 6.0000014990948705
  endloop
endfacet
facet normal 2.846725752831436e-09 4.422119708956062e-10 -1.0
  outer loop
    vertex 359.4968614514035 -2139.1693490174284 6.000001499094873
    vertex 354.4968614967847 -2139.169348973074 6.000001417352641
    vertex 354.49686153087464 -2112.169348973074 6.000001429029188
  endloop
endfacet
facet normal 9.590916225997738e-09 0.991444861373834 -0.13052619221987283
  outer loop
    vertex 354.49686148187243 -2135.618237712508 21.388229985006408
    vertex 359.4968614377892 -2135.6693490174284 21.00000149909487
    vertex 354.49686148317033 -2135.669348973074 21.00000141735262
  endloop
endfacet
facet normal 9.590916225997738e-09 0.991444861373834 -0.13052619221987283
  outer loop
    vertex 359.4968614377892 -2135.6693490174284 21.00000149909487
    vertex 354.49686148187243 -2135.618237712508 21.388229985006408
    vertex 359.4968614364913 -2135.618237756862 21.38823006674866
  endloop
endfacet
facet normal 8.40623148967564e-09 0.991444861373834 0.1305261922198729
  outer loop
    vertex 354.49686148317033 -2135.669348973074 21.00000141735262
    vertex 359.4968614400149 -2135.618237756862 20.611772931441084
    vertex 354.49686148539604 -2135.618237712508 20.611772849698834
  endloop
endfacet
facet normal 8.40623148967564e-09 0.991444861373834 0.1305261922198729
  outer loop
    vertex 359.4968614400149 -2135.618237756862 20.611772931441084
    vertex 354.49686148317033 -2135.669348973074 21.00000141735262
    vertex 359.4968614377892 -2135.6693490174284 21.00000149909487
  endloop
endfacet
facet normal -1.9249283558670376e-09 -0.6087614290089861 -0.7933533402910316
  outer loop
    vertex 354.49686150159806 -2133.1086888012946 22.060661589132458
    vertex 359.4968614523155 -2133.4193490174284 22.299039604771547
    vertex 354.4968614976966 -2133.419348973074 22.299039523029297
  endloop
endfacet
facet normal -1.9249283558670376e-09 -0.6087614290089861 -0.7933533402910316
  outer loop
    vertex 359.4968614523155 -2133.4193490174284 22.299039604771547
    vertex 354.49686150159806 -2133.1086888012946 22.060661589132458
    vertex 359.49686145621695 -2133.108688845649 22.060661670874705
  endloop
endfacet
facet normal -1.0121995871258705e-08 -0.9238795325113016 0.38268343236505364
  outer loop
    vertex 359.49686146659747 -2132.870310911752 20.25000149909486
    vertex 354.49686151169686 -2132.7204602336406 20.611772849698834
    vertex 354.4968615119786 -2132.8703108673976 20.25000141735261
  endloop
endfacet
facet normal -1.0121995871258705e-08 -0.9238795325113016 0.38268343236505364
  outer loop
    vertex 354.49686151169686 -2132.7204602336406 20.611772849698834
    vertex 359.49686146659747 -2132.870310911752 20.25000149909486
    vertex 359.49686146631575 -2132.720460277995 20.611772931441084
  endloop
endfacet
facet normal -6.648675969284242e-09 -0.9238795325113018 -0.3826834323650538
  outer loop
    vertex 359.49686146279214 -2132.720460277995 21.38823006674866
    vertex 354.4968615051714 -2132.8703108673976 21.75000141735263
    vertex 354.49686150817325 -2132.7204602336406 21.388229985006408
  endloop
endfacet
facet normal -6.648675969284242e-09 -0.9238795325113018 -0.3826834323650538
  outer loop
    vertex 354.4968615051714 -2132.8703108673976 21.75000141735263
    vertex 359.49686146279214 -2132.720460277995 21.38823006674866
    vertex 359.4968614597903 -2132.870310911752 21.750001499094882
  endloop
endfacet
facet normal -4.4380241690408565e-09 -0.7933533402910848 -0.6087614290089168
  outer loop
    vertex 359.4968614597903 -2132.870310911752 21.750001499094882
    vertex 354.49686150159806 -2133.1086888012946 22.060661589132458
    vertex 354.4968615051714 -2132.8703108673976 21.75000141735263
  endloop
endfacet
facet normal -4.4380241690408565e-09 -0.7933533402910848 -0.6087614290089168
  outer loop
    vertex 354.49686150159806 -2133.1086888012946 22.060661589132458
    vertex 359.4968614597903 -2132.870310911752 21.750001499094882
    vertex 359.49686145621695 -2133.108688845649 22.060661670874705
  endloop
endfacet
facet normal -2.8022143647025354e-09 -3.5555985898005064e-10 1.0
  outer loop
    vertex 337.4968615138446 -2101.16935016273 26.00000141295677
    vertex 314.4968615244261 -2091.16935016273 26.000001371049937
    vertex 314.4968615215468 -2096.16935016273 26.00000136888761
  endloop
endfacet
facet normal -2.8022143647025354e-09 -3.5555985898005064e-10 1.0
  outer loop
    vertex 314.4968615244261 -2091.16935016273 26.000001371049937
    vertex 337.4968615138446 -2101.16935016273 26.00000141295677
    vertex 337.4968615138446 -2086.1693501504683 26.000001425542
  endloop
endfacet
facet normal -2.8022143647025354e-09 -3.5555985898005064e-10 1.0
  outer loop
    vertex 359.4968614514035 -2139.1693490174284 26.000001499094868
    vertex 354.4968615123329 -2112.169348973074 26.00000142902922
    vertex 354.4968614967847 -2139.169348973074 26.000001417352664
  endloop
endfacet
facet normal -2.8022143647025354e-09 -3.5555985898005064e-10 1.0
  outer loop
    vertex 337.4968615123329 -2112.169348955602 26.000001417886494
    vertex 342.496860590614 -2106.1693501473 26.000001439461748
    vertex 337.4968615138446 -2101.16935016273 26.00000141295677
  endloop
endfacet
facet normal -2.8022143647025354e-09 -3.5555985898005064e-10 1.0
  outer loop
    vertex 342.496860590614 -2106.1693501473 26.000001439461748
    vertex 337.4968615123329 -2112.169348955602 26.000001417886494
    vertex 354.4968615123329 -2112.169348973074 26.00000142902922
  endloop
endfacet
facet normal -2.8022143647025354e-09 -3.5555985898005064e-10 1.0
  outer loop
    vertex 337.4968615138446 -2101.16935016273 26.00000141295677
    vertex 342.496860590614 -2106.1693501473 26.000001439461748
    vertex 337.4968615138446 -2086.1693501504683 26.000001425542
  endloop
endfacet
facet normal -2.8022143647025354e-09 -3.5555985898005064e-10 1.0
  outer loop
    vertex 342.496860590614 -2106.1693501473 26.000001439461748
    vertex 354.4968615123329 -2112.169348973074 26.00000142902922
    vertex 347.49686059061395 -2106.1693501470077 26.0000014494006
  endloop
endfacet
facet normal -2.8022143647025354e-09 -3.5555985898005064e-10 1.0
  outer loop
    vertex 347.49686059061395 -2106.1693501470077 26.0000014494006
    vertex 354.4968615123329 -2112.169348973074 26.00000142902922
    vertex 362.496860590614 -2106.1693501419622 26.000001499094868
  endloop
endfacet
facet normal -2.8022143647025354e-09 -3.5555985898005064e-10 1.0
  outer loop
    vertex 362.496860590614 -2106.1693501419622 26.000001499094868
    vertex 354.4968615123329 -2112.169348973074 26.00000142902922
    vertex 359.4968614514035 -2129.169348903568 26.000001499094868
  endloop
endfacet
facet normal -2.8022143647025354e-09 -3.5555985898005064e-10 1.0
  outer loop
    vertex 359.4968614514035 -2129.169348903568 26.000001499094868
    vertex 354.4968615123329 -2112.169348973074 26.00000142902922
    vertex 359.4968614514035 -2139.1693490174284 26.000001499094868
  endloop
endfacet
facet normal -2.8022143647025354e-09 -3.5555985898005064e-10 1.0
  outer loop
    vertex 362.496860590614 -2106.1693501419622 26.000001499094868
    vertex 359.4968614514035 -2129.169348903568 26.000001499094868
    vertex 362.4968608933314 -2129.169348916168 26.000001499094868
  endloop
endfacet
facet normal -2.8022143647025354e-09 -3.5555985898005064e-10 1.0
  outer loop
    vertex 342.4968605977846 -2086.169350147299 26.000001449884905
    vertex 337.4968615138446 -2086.1693501504683 26.000001425542
    vertex 342.496860590614 -2106.1693501473 26.000001439461748
  endloop
endfacet
facet normal -5.6839717022153145e-09 -0.1305261922200153 0.9914448613738152
  outer loop
    vertex 359.49686145821073 -2134.1693490174284 19.50000149909485
    vertex 354.49686150688353 -2133.7811204054206 19.551112677919
    vertex 354.49686150359184 -2134.169348973074 19.5000014173526
  endloop
endfacet
facet normal -5.6839717022153145e-09 -0.1305261922200153 0.9914448613738152
  outer loop
    vertex 354.49686150688353 -2133.7811204054206 19.551112677919
    vertex 359.49686145821073 -2134.1693490174284 19.50000149909485
    vertex 359.4968614615024 -2133.781120449775 19.551112759661248
  endloop
endfacet
facet normal 7.193481436740442e-10 -0.3826834323650219 -0.923879532511315
  outer loop
    vertex 354.4968614976966 -2133.419348973074 22.299039523029297
    vertex 359.496861448352 -2133.781120449775 22.44889023852849
    vertex 354.4968614937331 -2133.7811204054206 22.448890156786245
  endloop
endfacet
facet normal 7.193481436740442e-10 -0.3826834323650219 -0.923879532511315
  outer loop
    vertex 359.496861448352 -2133.781120449775 22.44889023852849
    vertex 354.4968614976966 -2133.419348973074 22.299039523029297
    vertex 359.4968614523155 -2133.4193490174284 22.299039604771547
  endloop
endfacet
facet normal -9.12557963334691e-09 -0.6087614290085409 0.793353340291373
  outer loop
    vertex 359.4968614641059 -2133.419349017429 19.700963393418196
    vertex 354.49686151122484 -2133.1086888012946 19.939341245572788
    vertex 354.496861509487 -2133.4193489730746 19.700963311675945
  endloop
endfacet
facet normal -9.12557963334691e-09 -0.6087614290085409 0.793353340291373
  outer loop
    vertex 354.49686151122484 -2133.1086888012946 19.939341245572788
    vertex 359.4968614641059 -2133.419349017429 19.700963393418196
    vertex 359.4968614658437 -2133.108688845649 19.939341327315034
  endloop
endfacet
facet normal -9.590916225997738e-09 -0.991444861373834 0.13052619221987283
  outer loop
    vertex 359.49686146631575 -2132.720460277995 20.611772931441084
    vertex 354.49686151039896 -2132.669348973074 21.00000141735262
    vertex 354.49686151169686 -2132.7204602336406 20.611772849698834
  endloop
endfacet
facet normal -9.590916225997738e-09 -0.991444861373834 0.13052619221987283
  outer loop
    vertex 354.49686151039896 -2132.669348973074 21.00000141735262
    vertex 359.49686146631575 -2132.720460277995 20.611772931441084
    vertex 359.49686146501784 -2132.6693490174284 21.00000149909487
  endloop
endfacet
facet normal -7.665987870136489e-09 -0.38268343236534763 0.9238795325111799
  outer loop
    vertex 359.4968614615024 -2133.781120449775 19.551112759661248
    vertex 354.496861509487 -2133.4193489730746 19.700963311675945
    vertex 354.49686150688353 -2133.7811204054206 19.551112677919
  endloop
endfacet
facet normal -7.665987870136489e-09 -0.38268343236534763 0.9238795325111799
  outer loop
    vertex 354.496861509487 -2133.4193489730746 19.700963311675945
    vertex 359.4968614615024 -2133.781120449775 19.551112759661248
    vertex 359.4968614641059 -2133.419349017429 19.700963393418196
  endloop
endfacet
facet normal 3.314602255998333e-09 -0.13052619222001538 -0.9914448613738152
  outer loop
    vertex 354.4968614937331 -2133.7811204054206 22.448890156786245
    vertex 359.49686144459633 -2134.1693490174284 22.500001499094893
    vertex 354.4968614899775 -2134.169348973074 22.500001417352642
  endloop
endfacet
facet normal 3.314602255998333e-09 -0.13052619222001538 -0.9914448613738152
  outer loop
    vertex 359.49686144459633 -2134.1693490174284 22.500001499094893
    vertex 354.4968614937331 -2133.7811204054206 22.448890156786245
    vertex 359.496861448352 -2133.781120449775 22.44889023852849
  endloop
endfacet
facet normal 5.6839717022153145e-09 0.1305261922200153 -0.9914448613738152
  outer loop
    vertex 354.4968614899775 -2134.169348973074 22.500001417352642
    vertex 359.49686144130465 -2134.5575775850825 22.44889023852849
    vertex 354.4968614866858 -2134.5575775407283 22.448890156786245
  endloop
endfacet
facet normal 5.6839717022153145e-09 0.1305261922200153 -0.9914448613738152
  outer loop
    vertex 359.49686144130465 -2134.5575775850825 22.44889023852849
    vertex 354.4968614899775 -2134.169348973074 22.500001417352642
    vertex 359.49686144459633 -2134.1693490174284 22.500001499094893
  endloop
endfacet
facet normal 7.665987870136489e-09 0.38268343236534763 -0.9238795325111799
  outer loop
    vertex 354.4968614866858 -2134.5575775407283 22.448890156786245
    vertex 359.49686143870116 -2134.9193490174284 22.299039604771547
    vertex 354.49686148408233 -2134.919348973074 22.299039523029297
  endloop
endfacet
facet normal 7.665987870136489e-09 0.38268343236534763 -0.9238795325111799
  outer loop
    vertex 359.49686143870116 -2134.9193490174284 22.299039604771547
    vertex 354.4968614866858 -2134.5575775407283 22.448890156786245
    vertex 359.49686144130465 -2134.5575775850825 22.44889023852849
  endloop
endfacet
facet normal -8.40623148967564e-09 -0.991444861373834 -0.1305261922198729
  outer loop
    vertex 359.49686146501784 -2132.6693490174284 21.00000149909487
    vertex 354.49686150817325 -2132.7204602336406 21.388229985006408
    vertex 354.49686151039896 -2132.669348973074 21.00000141735262
  endloop
endfacet
facet normal -8.40623148967564e-09 -0.991444861373834 -0.1305261922198729
  outer loop
    vertex 354.49686150817325 -2132.7204602336406 21.388229985006408
    vertex 359.49686146501784 -2132.6693490174284 21.00000149909487
    vertex 359.49686146279214 -2132.720460277995 21.38823006674866
  endloop
endfacet
facet normal 9.12557963334691e-09 0.6087614290085409 -0.793353340291373
  outer loop
    vertex 354.49686148408233 -2134.919348973074 22.299039523029297
    vertex 359.49686143696334 -2135.2300091892084 22.060661670874705
    vertex 354.49686148234446 -2135.230009144854 22.060661589132458
  endloop
endfacet
facet normal 9.12557963334691e-09 0.6087614290085409 -0.793353340291373
  outer loop
    vertex 359.49686143696334 -2135.2300091892084 22.060661670874705
    vertex 354.49686148408233 -2134.919348973074 22.299039523029297
    vertex 359.49686143870116 -2134.9193490174284 22.299039604771547
  endloop
endfacet
facet normal 1.9249283558670376e-09 0.6087614290089861 0.7933533402910316
  outer loop
    vertex 359.4968614465901 -2135.2300091892084 9.939341327315038
    vertex 354.4968614958727 -2134.9193489730746 9.700963311675965
    vertex 354.4968614919713 -2135.230009144854 9.939341245572805
  endloop
endfacet
facet normal 1.9249283558670376e-09 0.6087614290089861 0.7933533402910316
  outer loop
    vertex 354.4968614958727 -2134.9193489730746 9.700963311675965
    vertex 359.4968614465901 -2135.2300091892084 9.939341327315038
    vertex 359.49686145049156 -2134.919349017429 9.700963393418197
  endloop
endfacet
facet normal 9.963278225281444e-09 0.7933533402910835 -0.6087614290089184
  outer loop
    vertex 354.49686148234446 -2135.230009144854 12.060661589132476
    vertex 359.4968614362096 -2135.4683871231055 11.750001499094884
    vertex 354.4968614815907 -2135.468387078751 11.750001417352653
  endloop
endfacet
facet normal 9.963278225281444e-09 0.7933533402910835 -0.6087614290089184
  outer loop
    vertex 359.4968614362096 -2135.4683871231055 11.750001499094884
    vertex 354.49686148234446 -2135.230009144854 12.060661589132476
    vertex 359.49686143696334 -2135.2300091892084 12.060661670874708
  endloop
endfacet
facet normal 5.6839717022153145e-09 0.1305261922200153 -0.9914448613738152
  outer loop
    vertex 354.4968614899775 -2134.169348973074 12.50000141735266
    vertex 359.49686144130465 -2134.5575775850825 12.448890238528495
    vertex 354.4968614866858 -2134.5575775407283 12.448890156786263
  endloop
endfacet
facet normal 5.6839717022153145e-09 0.1305261922200153 -0.9914448613738152
  outer loop
    vertex 359.49686144130465 -2134.5575775850825 12.448890238528495
    vertex 354.4968614899775 -2134.169348973074 12.50000141735266
    vertex 359.49686144459633 -2134.1693490174284 12.500001499094893
  endloop
endfacet
facet normal 9.590916225997738e-09 0.991444861373834 -0.13052619221987283
  outer loop
    vertex 354.49686148187243 -2135.618237712508 11.388229985006427
    vertex 359.4968614377892 -2135.6693490174284 11.000001499094873
    vertex 354.49686148317033 -2135.669348973074 11.00000141735264
  endloop
endfacet
facet normal 9.590916225997738e-09 0.991444861373834 -0.13052619221987283
  outer loop
    vertex 359.4968614377892 -2135.6693490174284 11.000001499094873
    vertex 354.49686148187243 -2135.618237712508 11.388229985006427
    vertex 359.4968614364913 -2135.618237756862 11.38823006674866
  endloop
endfacet
facet normal 4.4380241690408565e-09 0.7933533402910848 0.6087614290089168
  outer loop
    vertex 354.4968614883979 -2135.468387078751 10.250001417352632
    vertex 359.4968614465901 -2135.2300091892084 9.939341327315038
    vertex 354.4968614919713 -2135.230009144854 9.939341245572805
  endloop
endfacet
facet normal 4.4380241690408565e-09 0.7933533402910848 0.6087614290089168
  outer loop
    vertex 359.4968614465901 -2135.2300091892084 9.939341327315038
    vertex 354.4968614883979 -2135.468387078751 10.250001417352632
    vertex 359.49686144301677 -2135.4683871231055 10.250001499094862
  endloop
endfacet
facet normal -8.406231489675638e-09 -0.9914448613738338 -0.13052619221987335
  outer loop
    vertex 359.49686146501784 -2132.6693490174284 11.000001499094873
    vertex 354.49686150817325 -2132.7204602336406 11.388229985006426
    vertex 354.49686151039896 -2132.669348973074 11.00000141735264
  endloop
endfacet
facet normal -8.406231489675638e-09 -0.9914448613738338 -0.13052619221987335
  outer loop
    vertex 354.49686150817325 -2132.7204602336406 11.388229985006426
    vertex 359.49686146501784 -2132.6693490174284 11.000001499094873
    vertex 359.49686146279214 -2132.720460277995 11.388230066748658
  endloop
endfacet
facet normal -6.648675969284253e-09 -0.9238795325113024 -0.38268343236505253
  outer loop
    vertex 359.49686146279214 -2132.720460277995 11.388230066748658
    vertex 354.4968615051714 -2132.8703108673976 11.750001417352651
    vertex 354.49686150817325 -2132.7204602336406 11.388229985006426
  endloop
endfacet
facet normal -6.648675969284253e-09 -0.9238795325113024 -0.38268343236505253
  outer loop
    vertex 354.4968615051714 -2132.8703108673976 11.750001417352651
    vertex 359.49686146279214 -2132.720460277995 11.388230066748658
    vertex 359.4968614597903 -2132.870310911752 11.750001499094882
  endloop
endfacet
facet normal -7.193481436740442e-10 0.3826834323650219 0.923879532511315
  outer loop
    vertex 359.49686145049156 -2134.919349017429 9.700963393418197
    vertex 354.4968614998362 -2134.5575775407283 9.551112677919019
    vertex 354.4968614958727 -2134.9193489730746 9.700963311675965
  endloop
endfacet
facet normal -7.193481436740442e-10 0.3826834323650219 0.923879532511315
  outer loop
    vertex 354.4968614998362 -2134.5575775407283 9.551112677919019
    vertex 359.49686145049156 -2134.919349017429 9.700963393418197
    vertex 359.4968614544551 -2134.5575775850825 9.551112759661251
  endloop
endfacet
facet normal 3.314602255998333e-09 -0.13052619222001538 -0.9914448613738152
  outer loop
    vertex 354.4968614937331 -2133.7811204054206 12.448890156786263
    vertex 359.49686144459633 -2134.1693490174284 12.500001499094893
    vertex 354.4968614899775 -2134.169348973074 12.50000141735266
  endloop
endfacet
facet normal 3.314602255998333e-09 -0.13052619222001538 -0.9914448613738152
  outer loop
    vertex 359.49686144459633 -2134.1693490174284 12.500001499094893
    vertex 354.4968614937331 -2133.7811204054206 12.448890156786263
    vertex 359.496861448352 -2133.781120449775 12.448890238528495
  endloop
endfacet
facet normal 1.0121995871258705e-08 0.9238795325113022 -0.38268343236505237
  outer loop
    vertex 354.4968614815907 -2135.468387078751 11.750001417352653
    vertex 359.4968614364913 -2135.618237756862 11.38823006674866
    vertex 354.49686148187243 -2135.618237712508 11.388229985006427
  endloop
endfacet
facet normal 1.0121995871258705e-08 0.9238795325113022 -0.38268343236505237
  outer loop
    vertex 359.4968614364913 -2135.618237756862 11.38823006674866
    vertex 354.4968614815907 -2135.468387078751 11.750001417352653
    vertex 359.4968614362096 -2135.4683871231055 11.750001499094884
  endloop
endfacet
facet normal 9.12557963334691e-09 0.6087614290085409 -0.793353340291373
  outer loop
    vertex 354.49686148408233 -2134.919348973074 12.299039523029316
    vertex 359.49686143696334 -2135.2300091892084 12.060661670874708
    vertex 354.49686148234446 -2135.230009144854 12.060661589132476
  endloop
endfacet
facet normal 9.12557963334691e-09 0.6087614290085409 -0.793353340291373
  outer loop
    vertex 359.49686143696334 -2135.2300091892084 12.060661670874708
    vertex 354.49686148408233 -2134.919348973074 12.299039523029316
    vertex 359.49686143870116 -2134.9193490174284 12.299039604771549
  endloop
endfacet
facet normal 6.648675969284242e-09 0.9238795325113018 0.3826834323650538
  outer loop
    vertex 354.49686148539604 -2135.618237712508 20.611772849698834
    vertex 359.49686144301677 -2135.4683871231055 20.25000149909486
    vertex 354.4968614883979 -2135.468387078751 20.25000141735261
  endloop
endfacet
facet normal 6.648675969284242e-09 0.9238795325113018 0.3826834323650538
  outer loop
    vertex 359.49686144301677 -2135.4683871231055 20.25000149909486
    vertex 354.49686148539604 -2135.618237712508 20.611772849698834
    vertex 359.4968614400149 -2135.618237756862 20.611772931441084
  endloop
endfacet
facet normal -5.6839717022153145e-09 -0.1305261922200153 0.9914448613738152
  outer loop
    vertex 359.49686145821073 -2134.1693490174284 9.500001499094854
    vertex 354.49686150688353 -2133.7811204054206 9.551112677919019
    vertex 354.49686150359184 -2134.169348973074 9.500001417352621
  endloop
endfacet
facet normal -5.6839717022153145e-09 -0.1305261922200153 0.9914448613738152
  outer loop
    vertex 354.49686150688353 -2133.7811204054206 9.551112677919019
    vertex 359.49686145821073 -2134.1693490174284 9.500001499094854
    vertex 359.4968614615024 -2133.781120449775 9.551112759661251
  endloop
endfacet
facet normal -9.12557963334691e-09 -0.6087614290085409 0.793353340291373
  outer loop
    vertex 359.4968614641059 -2133.419349017429 9.700963393418197
    vertex 354.49686151122484 -2133.1086888012946 9.939341245572805
    vertex 354.496861509487 -2133.4193489730746 9.700963311675965
  endloop
endfacet
facet normal -9.12557963334691e-09 -0.6087614290085409 0.793353340291373
  outer loop
    vertex 354.49686151122484 -2133.1086888012946 9.939341245572805
    vertex 359.4968614641059 -2133.419349017429 9.700963393418197
    vertex 359.4968614658437 -2133.108688845649 9.939341327315038
  endloop
endfacet
facet normal 4.4380241690408565e-09 0.7933533402910848 0.6087614290089168
  outer loop
    vertex 354.4968614883979 -2135.468387078751 20.25000141735261
    vertex 359.4968614465901 -2135.2300091892084 19.939341327315034
    vertex 354.4968614919713 -2135.230009144854 19.939341245572788
  endloop
endfacet
facet normal 4.4380241690408565e-09 0.7933533402910848 0.6087614290089168
  outer loop
    vertex 359.4968614465901 -2135.2300091892084 19.939341327315034
    vertex 354.4968614883979 -2135.468387078751 20.25000141735261
    vertex 359.49686144301677 -2135.4683871231055 20.25000149909486
  endloop
endfacet
facet normal -7.665987870136489e-09 -0.38268343236534763 0.9238795325111799
  outer loop
    vertex 359.4968614615024 -2133.781120449775 9.551112759661251
    vertex 354.496861509487 -2133.4193489730746 9.700963311675965
    vertex 354.49686150688353 -2133.7811204054206 9.551112677919019
  endloop
endfacet
facet normal -7.665987870136489e-09 -0.38268343236534763 0.9238795325111799
  outer loop
    vertex 354.496861509487 -2133.4193489730746 9.700963311675965
    vertex 359.4968614615024 -2133.781120449775 9.551112759661251
    vertex 359.4968614641059 -2133.419349017429 9.700963393418197
  endloop
endfacet
facet normal -3.314602255998333e-09 0.13052619222001538 0.9914448613738152
  outer loop
    vertex 359.4968614544551 -2134.5575775850825 19.551112759661248
    vertex 354.49686150359184 -2134.169348973074 19.5000014173526
    vertex 354.4968614998362 -2134.5575775407283 19.551112677919
  endloop
endfacet
facet normal -3.314602255998333e-09 0.13052619222001538 0.9914448613738152
  outer loop
    vertex 354.49686150359184 -2134.169348973074 19.5000014173526
    vertex 359.4968614544551 -2134.5575775850825 19.551112759661248
    vertex 359.49686145821073 -2134.1693490174284 19.50000149909485
  endloop
endfacet
facet normal -9.590916225997738e-09 -0.991444861373834 0.13052619221987283
  outer loop
    vertex 359.49686146631575 -2132.720460277995 10.611772931441086
    vertex 354.49686151039896 -2132.669348973074 11.00000141735264
    vertex 354.49686151169686 -2132.7204602336406 10.611772849698854
  endloop
endfacet
facet normal -9.590916225997738e-09 -0.991444861373834 0.13052619221987283
  outer loop
    vertex 354.49686151039896 -2132.669348973074 11.00000141735264
    vertex 359.49686146631575 -2132.720460277995 10.611772931441086
    vertex 359.49686146501784 -2132.6693490174284 11.000001499094873
  endloop
endfacet
facet normal -4.4380241690408565e-09 -0.7933533402910848 -0.6087614290089168
  outer loop
    vertex 359.4968614597903 -2132.870310911752 11.750001499094882
    vertex 354.49686150159806 -2133.1086888012946 12.060661589132476
    vertex 354.4968615051714 -2132.8703108673976 11.750001417352651
  endloop
endfacet
facet normal -4.4380241690408565e-09 -0.7933533402910848 -0.6087614290089168
  outer loop
    vertex 354.49686150159806 -2133.1086888012946 12.060661589132476
    vertex 359.4968614597903 -2132.870310911752 11.750001499094882
    vertex 359.49686145621695 -2133.108688845649 12.060661670874708
  endloop
endfacet
facet normal -1.9249283558670376e-09 -0.6087614290089861 -0.7933533402910316
  outer loop
    vertex 354.49686150159806 -2133.1086888012946 12.060661589132476
    vertex 359.4968614523155 -2133.4193490174284 12.299039604771549
    vertex 354.4968614976966 -2133.419348973074 12.299039523029316
  endloop
endfacet
facet normal -1.9249283558670376e-09 -0.6087614290089861 -0.7933533402910316
  outer loop
    vertex 359.4968614523155 -2133.4193490174284 12.299039604771549
    vertex 354.49686150159806 -2133.1086888012946 12.060661589132476
    vertex 359.49686145621695 -2133.108688845649 12.060661670874708
  endloop
endfacet
facet normal 7.193481436740442e-10 -0.3826834323650219 -0.923879532511315
  outer loop
    vertex 354.4968614976966 -2133.419348973074 12.299039523029316
    vertex 359.496861448352 -2133.781120449775 12.448890238528495
    vertex 354.4968614937331 -2133.7811204054206 12.448890156786263
  endloop
endfacet
facet normal 7.193481436740442e-10 -0.3826834323650219 -0.923879532511315
  outer loop
    vertex 359.496861448352 -2133.781120449775 12.448890238528495
    vertex 354.4968614976966 -2133.419348973074 12.299039523029316
    vertex 359.4968614523155 -2133.4193490174284 12.299039604771549
  endloop
endfacet
facet normal 6.648675969284242e-09 0.9238795325113018 0.3826834323650538
  outer loop
    vertex 354.49686148539604 -2135.618237712508 10.611772849698854
    vertex 359.49686144301677 -2135.4683871231055 10.250001499094862
    vertex 354.4968614883979 -2135.468387078751 10.250001417352632
  endloop
endfacet
facet normal 6.648675969284242e-09 0.9238795325113018 0.3826834323650538
  outer loop
    vertex 359.49686144301677 -2135.4683871231055 10.250001499094862
    vertex 354.49686148539604 -2135.618237712508 10.611772849698854
    vertex 359.4968614400149 -2135.618237756862 10.611772931441086
  endloop
endfacet
facet normal 7.665987870136489e-09 0.38268343236534763 -0.9238795325111799
  outer loop
    vertex 354.4968614866858 -2134.5575775407283 12.448890156786263
    vertex 359.49686143870116 -2134.9193490174284 12.299039604771549
    vertex 354.49686148408233 -2134.919348973074 12.299039523029316
  endloop
endfacet
facet normal 7.665987870136489e-09 0.38268343236534763 -0.9238795325111799
  outer loop
    vertex 359.49686143870116 -2134.9193490174284 12.299039604771549
    vertex 354.4968614866858 -2134.5575775407283 12.448890156786263
    vertex 359.49686144130465 -2134.5575775850825 12.448890238528495
  endloop
endfacet
facet normal -7.193481436740442e-10 0.3826834323650219 0.923879532511315
  outer loop
    vertex 359.49686145049156 -2134.919349017429 19.700963393418196
    vertex 354.4968614998362 -2134.5575775407283 19.551112677919
    vertex 354.4968614958727 -2134.9193489730746 19.700963311675945
  endloop
endfacet
facet normal -7.193481436740442e-10 0.3826834323650219 0.923879532511315
  outer loop
    vertex 354.4968614998362 -2134.5575775407283 19.551112677919
    vertex 359.49686145049156 -2134.919349017429 19.700963393418196
    vertex 359.4968614544551 -2134.5575775850825 19.551112759661248
  endloop
endfacet
facet normal 8.40623148967564e-09 0.991444861373834 0.1305261922198729
  outer loop
    vertex 354.49686148317033 -2135.669348973074 11.00000141735264
    vertex 359.4968614400149 -2135.618237756862 10.611772931441086
    vertex 354.49686148539604 -2135.618237712508 10.611772849698854
  endloop
endfacet
facet normal 8.40623148967564e-09 0.991444861373834 0.1305261922198729
  outer loop
    vertex 359.4968614400149 -2135.618237756862 10.611772931441086
    vertex 354.49686148317033 -2135.669348973074 11.00000141735264
    vertex 359.4968614377892 -2135.6693490174284 11.000001499094873
  endloop
endfacet
facet normal 1.9249283558670376e-09 0.6087614290089861 0.7933533402910316
  outer loop
    vertex 359.4968614465901 -2135.2300091892084 19.939341327315034
    vertex 354.4968614958727 -2134.9193489730746 19.700963311675945
    vertex 354.4968614919713 -2135.230009144854 19.939341245572788
  endloop
endfacet
facet normal 1.9249283558670376e-09 0.6087614290089861 0.7933533402910316
  outer loop
    vertex 354.4968614958727 -2134.9193489730746 19.700963311675945
    vertex 359.4968614465901 -2135.2300091892084 19.939341327315034
    vertex 359.49686145049156 -2134.919349017429 19.700963393418196
  endloop
endfacet
facet normal -3.314602255998333e-09 0.13052619222001538 0.9914448613738152
  outer loop
    vertex 359.4968614544551 -2134.5575775850825 9.551112759661251
    vertex 354.49686150359184 -2134.169348973074 9.500001417352621
    vertex 354.4968614998362 -2134.5575775407283 9.551112677919019
  endloop
endfacet
facet normal -3.314602255998333e-09 0.13052619222001538 0.9914448613738152
  outer loop
    vertex 354.49686150359184 -2134.169348973074 9.500001417352621
    vertex 359.4968614544551 -2134.5575775850825 9.551112759661251
    vertex 359.49686145821073 -2134.1693490174284 9.500001499094854
  endloop
endfacet
facet normal -9.963278225281448e-09 -0.7933533402910848 0.6087614290089167
  outer loop
    vertex 359.4968614658437 -2133.108688845649 9.939341327315038
    vertex 354.4968615119786 -2132.8703108673976 10.250001417352632
    vertex 354.49686151122484 -2133.1086888012946 9.939341245572805
  endloop
endfacet
facet normal -9.963278225281448e-09 -0.7933533402910848 0.6087614290089167
  outer loop
    vertex 354.4968615119786 -2132.8703108673976 10.250001417352632
    vertex 359.4968614658437 -2133.108688845649 9.939341327315038
    vertex 359.49686146659747 -2132.870310911752 10.250001499094862
  endloop
endfacet
facet normal -1.0121995871258705e-08 -0.9238795325113016 0.38268343236505364
  outer loop
    vertex 359.49686146659747 -2132.870310911752 10.250001499094862
    vertex 354.49686151169686 -2132.7204602336406 10.611772849698854
    vertex 354.4968615119786 -2132.8703108673976 10.250001417352632
  endloop
endfacet
facet normal -1.0121995871258705e-08 -0.9238795325113016 0.38268343236505364
  outer loop
    vertex 354.49686151169686 -2132.7204602336406 10.611772849698854
    vertex 359.49686146659747 -2132.870310911752 10.250001499094862
    vertex 359.49686146631575 -2132.720460277995 10.611772931441086
  endloop
endfacet
facet normal 1.0 6.580813412247365e-09 -5.712243671341457e-09
  outer loop
    vertex 362.4968606277278 -2106.1693501280647 6.0000014990948705
    vertex 362.4968608933314 -2129.169348916168 26.000001499094868
    vertex 362.4968606277278 -2129.169348916168 6.0000014990948705
  endloop
endfacet
facet normal 1.0 6.580813412247365e-09 -5.712243671341457e-09
  outer loop
    vertex 362.4968608933314 -2129.169348916168 26.000001499094868
    vertex 362.4968606277278 -2106.1693501280647 6.0000014990948705
    vertex 362.496860590614 -2106.1693501419622 26.000001499094868
  endloop
endfacet
facet normal -4.19996141454931e-09 -1.0 8.828227323151953e-18
  outer loop
    vertex 362.4968608933314 -2129.169348916168 26.000001499094868
    vertex 359.49686163292796 -2129.169348903568 6.000001508345538
    vertex 362.4968606277278 -2129.169348916168 6.0000014990948705
  endloop
endfacet
facet normal -4.19996141454931e-09 -1.0 8.828227323151953e-18
  outer loop
    vertex 359.49686163292796 -2129.169348903568 6.000001508345538
    vertex 362.4968608933314 -2129.169348916168 26.000001499094868
    vertex 359.4968614514035 -2129.169348903568 26.000001499094868
  endloop
endfacet
facet normal 1.0 -9.07622219693334e-09 4.538111149088309e-09
  outer loop
    vertex 359.4968614514035 -2139.1693490174284 6.000001499094873
    vertex 359.4968614400149 -2135.618237756862 10.611772931441086
    vertex 359.4968614514035 -2139.1693490174284 26.000001499094868
  endloop
endfacet
facet normal 1.0 -9.07622219693334e-09 4.538111149088309e-09
  outer loop
    vertex 359.4968614400149 -2135.618237756862 10.611772931441086
    vertex 359.4968614514035 -2139.1693490174284 6.000001499094873
    vertex 359.49686144301677 -2135.4683871231055 10.250001499094862
  endloop
endfacet
facet normal 1.0 -9.07622219693334e-09 4.538111149088309e-09
  outer loop
    vertex 359.49686144301677 -2135.4683871231055 10.250001499094862
    vertex 359.4968614514035 -2139.1693490174284 6.000001499094873
    vertex 359.4968614465901 -2135.2300091892084 9.939341327315038
  endloop
endfacet
facet normal 1.0 -9.07622219693334e-09 4.538111149088309e-09
  outer loop
    vertex 359.4968614465901 -2135.2300091892084 9.939341327315038
    vertex 359.4968614514035 -2139.1693490174284 6.000001499094873
    vertex 359.49686145049156 -2134.919349017429 9.700963393418197
  endloop
endfacet
facet normal 1.0 -9.07622219693334e-09 4.538111149088309e-09
  outer loop
    vertex 359.49686145049156 -2134.919349017429 9.700963393418197
    vertex 359.4968614514035 -2139.1693490174284 6.000001499094873
    vertex 359.49686163292796 -2129.169348903568 6.000001508345538
  endloop
endfacet
facet normal 1.0 -9.07622219693334e-09 4.538111149088309e-09
  outer loop
    vertex 359.4968614514035 -2139.1693490174284 26.000001499094868
    vertex 359.4968614400149 -2135.618237756862 10.611772931441086
    vertex 359.4968614377892 -2135.6693490174284 11.000001499094873
  endloop
endfacet
facet normal 1.0 -9.07622219693334e-09 4.538111149088309e-09
  outer loop
    vertex 359.49686145049156 -2134.919349017429 9.700963393418197
    vertex 359.49686163292796 -2129.169348903568 6.000001508345538
    vertex 359.4968614544551 -2134.5575775850825 9.551112759661251
  endloop
endfacet
facet normal 1.0 -9.07622219693334e-09 4.538111149088309e-09
  outer loop
    vertex 359.4968614544551 -2134.5575775850825 9.551112759661251
    vertex 359.49686163292796 -2129.169348903568 6.000001508345538
    vertex 359.49686145821073 -2134.1693490174284 9.500001499094854
  endloop
endfacet
facet normal 1.0 -9.07622219693334e-09 4.538111149088309e-09
  outer loop
    vertex 359.49686145821073 -2134.1693490174284 9.500001499094854
    vertex 359.49686163292796 -2129.169348903568 6.000001508345538
    vertex 359.4968614615024 -2133.781120449775 9.551112759661251
  endloop
endfacet
facet normal 1.0 -9.07622219693334e-09 4.538111149088309e-09
  outer loop
    vertex 359.4968614615024 -2133.781120449775 9.551112759661251
    vertex 359.49686163292796 -2129.169348903568 6.000001508345538
    vertex 359.4968614641059 -2133.419349017429 9.700963393418197
  endloop
endfacet
facet normal 1.0 -9.07622219693334e-09 4.538111149088309e-09
  outer loop
    vertex 359.4968614641059 -2133.419349017429 9.700963393418197
    vertex 359.49686163292796 -2129.169348903568 6.000001508345538
    vertex 359.4968614658437 -2133.108688845649 9.939341327315038
  endloop
endfacet
facet normal 1.0 -9.07622219693334e-09 4.538111149088309e-09
  outer loop
    vertex 359.4968614658437 -2133.108688845649 9.939341327315038
    vertex 359.49686163292796 -2129.169348903568 6.000001508345538
    vertex 359.49686146659747 -2132.870310911752 10.250001499094862
  endloop
endfacet
facet normal 1.0 -9.07622219693334e-09 4.538111149088309e-09
  outer loop
    vertex 359.49686146659747 -2132.870310911752 10.250001499094862
    vertex 359.49686163292796 -2129.169348903568 6.000001508345538
    vertex 359.49686146631575 -2132.720460277995 10.611772931441086
  endloop
endfacet
facet normal 1.0 -9.07622219693334e-09 4.538111149088309e-09
  outer loop
    vertex 359.49686146631575 -2132.720460277995 10.611772931441086
    vertex 359.49686163292796 -2129.169348903568 6.000001508345538
    vertex 359.49686146501784 -2132.6693490174284 11.000001499094873
  endloop
endfacet
facet normal 1.0 -9.07622219693334e-09 4.538111149088309e-09
  outer loop
    vertex 359.49686146501784 -2132.6693490174284 11.000001499094873
    vertex 359.49686163292796 -2129.169348903568 6.000001508345538
    vertex 359.49686146501784 -2132.6693490174284 21.00000149909487
  endloop
endfacet
facet normal 1.0 -9.07622219693334e-09 4.538111149088309e-09
  outer loop
    vertex 359.4968614514035 -2139.1693490174284 26.000001499094868
    vertex 359.49686143870116 -2134.9193490174284 22.299039604771547
    vertex 359.4968614514035 -2129.169348903568 26.000001499094868
  endloop
endfacet
facet normal 1.0 -9.07622219693334e-09 4.538111149088309e-09
  outer loop
    vertex 359.49686143870116 -2134.9193490174284 22.299039604771547
    vertex 359.4968614514035 -2139.1693490174284 26.000001499094868
    vertex 359.49686143696334 -2135.2300091892084 22.060661670874705
  endloop
endfacet
facet normal 1.0 -9.07622219693334e-09 4.538111149088309e-09
  outer loop
    vertex 359.49686143696334 -2135.2300091892084 22.060661670874705
    vertex 359.4968614514035 -2139.1693490174284 26.000001499094868
    vertex 359.4968614362096 -2135.4683871231055 21.750001499094882
  endloop
endfacet
facet normal 1.0 -9.07622219693334e-09 4.538111149088309e-09
  outer loop
    vertex 359.4968614362096 -2135.4683871231055 21.750001499094882
    vertex 359.4968614514035 -2139.1693490174284 26.000001499094868
    vertex 359.4968614364913 -2135.618237756862 21.38823006674866
  endloop
endfacet
facet normal 1.0 -9.07622219693334e-09 4.538111149088309e-09
  outer loop
    vertex 359.4968614364913 -2135.618237756862 21.38823006674866
    vertex 359.4968614514035 -2139.1693490174284 26.000001499094868
    vertex 359.4968614377892 -2135.6693490174284 21.00000149909487
  endloop
endfacet
facet normal 1.0 -9.07622219693334e-09 4.538111149088309e-09
  outer loop
    vertex 359.4968614377892 -2135.6693490174284 21.00000149909487
    vertex 359.4968614514035 -2139.1693490174284 26.000001499094868
    vertex 359.4968614377892 -2135.6693490174284 11.000001499094873
  endloop
endfacet
facet normal 1.0 -9.07622219693334e-09 4.538111149088309e-09
  outer loop
    vertex 359.4968614514035 -2129.169348903568 26.000001499094868
    vertex 359.49686143870116 -2134.9193490174284 22.299039604771547
    vertex 359.49686144130465 -2134.5575775850825 22.44889023852849
  endloop
endfacet
facet normal 1.0 -9.07622219693334e-09 4.538111149088309e-09
  outer loop
    vertex 359.4968614514035 -2129.169348903568 26.000001499094868
    vertex 359.49686144130465 -2134.5575775850825 22.44889023852849
    vertex 359.49686144459633 -2134.1693490174284 22.500001499094893
  endloop
endfacet
facet normal 1.0 -9.07622219693334e-09 4.538111149088309e-09
  outer loop
    vertex 359.4968614514035 -2129.169348903568 26.000001499094868
    vertex 359.49686144459633 -2134.1693490174284 22.500001499094893
    vertex 359.496861448352 -2133.781120449775 22.44889023852849
  endloop
endfacet
facet normal 1.0 -9.07622219693334e-09 4.538111149088309e-09
  outer loop
    vertex 359.4968614514035 -2129.169348903568 26.000001499094868
    vertex 359.496861448352 -2133.781120449775 22.44889023852849
    vertex 359.4968614523155 -2133.4193490174284 22.299039604771547
  endloop
endfacet
facet normal 1.0 -9.07622219693334e-09 4.538111149088309e-09
  outer loop
    vertex 359.4968614514035 -2129.169348903568 26.000001499094868
    vertex 359.4968614523155 -2133.4193490174284 22.299039604771547
    vertex 359.49686145621695 -2133.108688845649 22.060661670874705
  endloop
endfacet
facet normal 1.0 -9.07622219693334e-09 4.538111149088309e-09
  outer loop
    vertex 359.4968614514035 -2129.169348903568 26.000001499094868
    vertex 359.49686145621695 -2133.108688845649 22.060661670874705
    vertex 359.4968614597903 -2132.870310911752 21.750001499094882
  endloop
endfacet
facet normal 1.0 -9.07622219693334e-09 4.538111149088309e-09
  outer loop
    vertex 359.4968614514035 -2129.169348903568 26.000001499094868
    vertex 359.4968614597903 -2132.870310911752 21.750001499094882
    vertex 359.49686146279214 -2132.720460277995 21.38823006674866
  endloop
endfacet
facet normal 1.0 -9.07622219693334e-09 4.538111149088309e-09
  outer loop
    vertex 359.4968614514035 -2129.169348903568 26.000001499094868
    vertex 359.49686146279214 -2132.720460277995 21.38823006674866
    vertex 359.49686146501784 -2132.6693490174284 21.00000149909487
  endloop
endfacet
facet normal 1.0 -9.07622219693334e-09 4.538111149088309e-09
  outer loop
    vertex 359.4968614514035 -2129.169348903568 26.000001499094868
    vertex 359.49686146501784 -2132.6693490174284 21.00000149909487
    vertex 359.49686163292796 -2129.169348903568 6.000001508345538
  endloop
endfacet
facet normal 1.0 -9.07622219693334e-09 4.538111149088309e-09
  outer loop
    vertex 359.4968614364913 -2135.618237756862 11.38823006674866
    vertex 359.4968614377892 -2135.6693490174284 21.00000149909487
    vertex 359.4968614377892 -2135.6693490174284 11.000001499094873
  endloop
endfacet
facet normal 1.0 -9.07622219693334e-09 4.538111149088309e-09
  outer loop
    vertex 359.4968614377892 -2135.6693490174284 21.00000149909487
    vertex 359.4968614364913 -2135.618237756862 11.38823006674866
    vertex 359.4968614400149 -2135.618237756862 20.611772931441084
  endloop
endfacet
facet normal 1.0 -9.07622219693334e-09 4.538111149088309e-09
  outer loop
    vertex 359.4968614400149 -2135.618237756862 20.611772931441084
    vertex 359.4968614364913 -2135.618237756862 11.38823006674866
    vertex 359.4968614362096 -2135.4683871231055 11.750001499094884
  endloop
endfacet
facet normal 1.0 -9.07622219693334e-09 4.538111149088309e-09
  outer loop
    vertex 359.4968614400149 -2135.618237756862 20.611772931441084
    vertex 359.4968614362096 -2135.4683871231055 11.750001499094884
    vertex 359.49686144301677 -2135.4683871231055 20.25000149909486
  endloop
endfacet
facet normal 1.0 -9.07622219693334e-09 4.538111149088309e-09
  outer loop
    vertex 359.49686144301677 -2135.4683871231055 20.25000149909486
    vertex 359.4968614362096 -2135.4683871231055 11.750001499094884
    vertex 359.49686143696334 -2135.2300091892084 12.060661670874708
  endloop
endfacet
facet normal 1.0 -9.07622219693334e-09 4.538111149088309e-09
  outer loop
    vertex 359.49686144301677 -2135.4683871231055 20.25000149909486
    vertex 359.49686143696334 -2135.2300091892084 12.060661670874708
    vertex 359.4968614465901 -2135.2300091892084 19.939341327315034
  endloop
endfacet
facet normal 1.0 -9.07622219693334e-09 4.538111149088309e-09
  outer loop
    vertex 359.4968614465901 -2135.2300091892084 19.939341327315034
    vertex 359.49686143696334 -2135.2300091892084 12.060661670874708
    vertex 359.49686143870116 -2134.9193490174284 12.299039604771549
  endloop
endfacet
facet normal 1.0 -9.07622219693334e-09 4.538111149088309e-09
  outer loop
    vertex 359.4968614465901 -2135.2300091892084 19.939341327315034
    vertex 359.49686143870116 -2134.9193490174284 12.299039604771549
    vertex 359.49686145049156 -2134.919349017429 19.700963393418196
  endloop
endfacet
facet normal 1.0 -9.07622219693334e-09 4.538111149088309e-09
  outer loop
    vertex 359.49686145049156 -2134.919349017429 19.700963393418196
    vertex 359.49686143870116 -2134.9193490174284 12.299039604771549
    vertex 359.4968614544551 -2134.5575775850825 19.551112759661248
  endloop
endfacet
facet normal 1.0 -9.07622219693334e-09 4.538111149088309e-09
  outer loop
    vertex 359.4968614544551 -2134.5575775850825 19.551112759661248
    vertex 359.49686143870116 -2134.9193490174284 12.299039604771549
    vertex 359.49686144130465 -2134.5575775850825 12.448890238528495
  endloop
endfacet
facet normal 1.0 -9.07622219693334e-09 4.538111149088309e-09
  outer loop
    vertex 359.4968614544551 -2134.5575775850825 19.551112759661248
    vertex 359.49686144130465 -2134.5575775850825 12.448890238528495
    vertex 359.49686144459633 -2134.1693490174284 12.500001499094893
  endloop
endfacet
facet normal 1.0 -9.07622219693334e-09 4.538111149088309e-09
  outer loop
    vertex 359.4968614544551 -2134.5575775850825 19.551112759661248
    vertex 359.49686144459633 -2134.1693490174284 12.500001499094893
    vertex 359.49686145821073 -2134.1693490174284 19.50000149909485
  endloop
endfacet
facet normal 1.0 -9.07622219693334e-09 4.538111149088309e-09
  outer loop
    vertex 359.49686145821073 -2134.1693490174284 19.50000149909485
    vertex 359.49686144459633 -2134.1693490174284 12.500001499094893
    vertex 359.496861448352 -2133.781120449775 12.448890238528495
  endloop
endfacet
facet normal 1.0 -9.07622219693334e-09 4.538111149088309e-09
  outer loop
    vertex 359.49686145821073 -2134.1693490174284 19.50000149909485
    vertex 359.496861448352 -2133.781120449775 12.448890238528495
    vertex 359.4968614615024 -2133.781120449775 19.551112759661248
  endloop
endfacet
facet normal 1.0 -9.07622219693334e-09 4.538111149088309e-09
  outer loop
    vertex 359.4968614615024 -2133.781120449775 19.551112759661248
    vertex 359.496861448352 -2133.781120449775 12.448890238528495
    vertex 359.4968614523155 -2133.4193490174284 12.299039604771549
  endloop
endfacet
facet normal 1.0 -9.07622219693334e-09 4.538111149088309e-09
  outer loop
    vertex 359.4968614615024 -2133.781120449775 19.551112759661248
    vertex 359.4968614523155 -2133.4193490174284 12.299039604771549
    vertex 359.4968614641059 -2133.419349017429 19.700963393418196
  endloop
endfacet
facet normal 1.0 -9.07622219693334e-09 4.538111149088309e-09
  outer loop
    vertex 359.4968614641059 -2133.419349017429 19.700963393418196
    vertex 359.4968614523155 -2133.4193490174284 12.299039604771549
    vertex 359.4968614658437 -2133.108688845649 19.939341327315034
  endloop
endfacet
facet normal 1.0 -9.07622219693334e-09 4.538111149088309e-09
  outer loop
    vertex 359.4968614658437 -2133.108688845649 19.939341327315034
    vertex 359.4968614523155 -2133.4193490174284 12.299039604771549
    vertex 359.49686145621695 -2133.108688845649 12.060661670874708
  endloop
endfacet
facet normal 1.0 -9.07622219693334e-09 4.538111149088309e-09
  outer loop
    vertex 359.4968614658437 -2133.108688845649 19.939341327315034
    vertex 359.49686145621695 -2133.108688845649 12.060661670874708
    vertex 359.4968614597903 -2132.870310911752 11.750001499094882
  endloop
endfacet
facet normal 1.0 -9.07622219693334e-09 4.538111149088309e-09
  outer loop
    vertex 359.4968614658437 -2133.108688845649 19.939341327315034
    vertex 359.4968614597903 -2132.870310911752 11.750001499094882
    vertex 359.49686146659747 -2132.870310911752 20.25000149909486
  endloop
endfacet
facet normal 1.0 -9.07622219693334e-09 4.538111149088309e-09
  outer loop
    vertex 359.49686146659747 -2132.870310911752 20.25000149909486
    vertex 359.4968614597903 -2132.870310911752 11.750001499094882
    vertex 359.49686146279214 -2132.720460277995 11.388230066748658
  endloop
endfacet
facet normal 1.0 -9.07622219693334e-09 4.538111149088309e-09
  outer loop
    vertex 359.49686146659747 -2132.870310911752 20.25000149909486
    vertex 359.49686146279214 -2132.720460277995 11.388230066748658
    vertex 359.49686146631575 -2132.720460277995 20.611772931441084
  endloop
endfacet
facet normal 1.0 -9.07622219693334e-09 4.538111149088309e-09
  outer loop
    vertex 359.49686146631575 -2132.720460277995 20.611772931441084
    vertex 359.49686146279214 -2132.720460277995 11.388230066748658
    vertex 359.49686146501784 -2132.6693490174284 11.000001499094873
  endloop
endfacet
facet normal 1.0 -9.07622219693334e-09 4.538111149088309e-09
  outer loop
    vertex 359.49686146631575 -2132.720460277995 20.611772931441084
    vertex 359.49686146501784 -2132.6693490174284 11.000001499094873
    vertex 359.49686146501784 -2132.6693490174284 21.00000149909487
  endloop
endfacet
facet normal -1.0 9.192271900398842e-10 -4.635438344280368e-10
  outer loop
    vertex 354.4968614967847 -2139.169348973074 26.000001417352664
    vertex 354.49686148187243 -2135.618237712508 21.388229985006408
    vertex 354.4968614967847 -2139.169348973074 6.000001417352641
  endloop
endfacet
facet normal -1.0 9.192271900398842e-10 -4.635438344280368e-10
  outer loop
    vertex 354.49686148187243 -2135.618237712508 21.388229985006408
    vertex 354.4968614967847 -2139.169348973074 26.000001417352664
    vertex 354.4968614815907 -2135.468387078751 21.75000141735263
  endloop
endfacet
facet normal -1.0 9.192271900398842e-10 -4.635438344280368e-10
  outer loop
    vertex 354.4968614815907 -2135.468387078751 21.75000141735263
    vertex 354.4968614967847 -2139.169348973074 26.000001417352664
    vertex 354.49686148234446 -2135.230009144854 22.060661589132458
  endloop
endfacet
facet normal -1.0 9.192271900398842e-10 -4.635438344280368e-10
  outer loop
    vertex 354.49686148234446 -2135.230009144854 22.060661589132458
    vertex 354.4968614967847 -2139.169348973074 26.000001417352664
    vertex 354.49686148408233 -2134.919348973074 22.299039523029297
  endloop
endfacet
facet normal -1.0 9.192271900398842e-10 -4.635438344280368e-10
  outer loop
    vertex 354.49686148408233 -2134.919348973074 22.299039523029297
    vertex 354.4968614967847 -2139.169348973074 26.000001417352664
    vertex 354.4968614866858 -2134.5575775407283 22.448890156786245
  endloop
endfacet
facet normal -1.0 9.192271900398842e-10 -4.635438344280368e-10
  outer loop
    vertex 354.4968614866858 -2134.5575775407283 22.448890156786245
    vertex 354.4968614967847 -2139.169348973074 26.000001417352664
    vertex 354.4968615123329 -2112.169348973074 26.00000142902922
  endloop
endfacet
facet normal -1.0 9.192271900398842e-10 -4.635438344280368e-10
  outer loop
    vertex 354.4968614967847 -2139.169348973074 6.000001417352641
    vertex 354.49686148187243 -2135.618237712508 21.388229985006408
    vertex 354.49686148317033 -2135.669348973074 21.00000141735262
  endloop
endfacet
facet normal -1.0 9.192271900398842e-10 -4.635438344280368e-10
  outer loop
    vertex 354.4968614866858 -2134.5575775407283 22.448890156786245
    vertex 354.4968615123329 -2112.169348973074 26.00000142902922
    vertex 354.4968614899775 -2134.169348973074 22.500001417352642
  endloop
endfacet
facet normal -1.0 9.192271900398842e-10 -4.635438344280368e-10
  outer loop
    vertex 354.4968614899775 -2134.169348973074 22.500001417352642
    vertex 354.4968615123329 -2112.169348973074 26.00000142902922
    vertex 354.4968614937331 -2133.7811204054206 22.448890156786245
  endloop
endfacet
facet normal -1.0 9.192271900398842e-10 -4.635438344280368e-10
  outer loop
    vertex 354.4968614937331 -2133.7811204054206 22.448890156786245
    vertex 354.4968615123329 -2112.169348973074 26.00000142902922
    vertex 354.4968614976966 -2133.419348973074 22.299039523029297
  endloop
endfacet
facet normal -1.0 9.192271900398842e-10 -4.635438344280368e-10
  outer loop
    vertex 354.4968614976966 -2133.419348973074 22.299039523029297
    vertex 354.4968615123329 -2112.169348973074 26.00000142902922
    vertex 354.49686150159806 -2133.1086888012946 22.060661589132458
  endloop
endfacet
facet normal -1.0 9.192271900398842e-10 -4.635438344280368e-10
  outer loop
    vertex 354.49686150159806 -2133.1086888012946 22.060661589132458
    vertex 354.4968615123329 -2112.169348973074 26.00000142902922
    vertex 354.4968615051714 -2132.8703108673976 21.75000141735263
  endloop
endfacet
facet normal -1.0 9.192271900398842e-10 -4.635438344280368e-10
  outer loop
    vertex 354.4968615051714 -2132.8703108673976 21.75000141735263
    vertex 354.4968615123329 -2112.169348973074 26.00000142902922
    vertex 354.49686150817325 -2132.7204602336406 21.388229985006408
  endloop
endfacet
facet normal -1.0 9.192271900398842e-10 -4.635438344280368e-10
  outer loop
    vertex 354.49686150817325 -2132.7204602336406 21.388229985006408
    vertex 354.4968615123329 -2112.169348973074 26.00000142902922
    vertex 354.49686151039896 -2132.669348973074 21.00000141735262
  endloop
endfacet
facet normal -1.0 9.192271900398842e-10 -4.635438344280368e-10
  outer loop
    vertex 354.49686151039896 -2132.669348973074 21.00000141735262
    vertex 354.4968615123329 -2112.169348973074 26.00000142902922
    vertex 354.49686151039896 -2132.669348973074 11.00000141735264
  endloop
endfacet
facet normal -1.0 9.192271900398842e-10 -4.635438344280368e-10
  outer loop
    vertex 354.4968614967847 -2139.169348973074 6.000001417352641
    vertex 354.4968614998362 -2134.5575775407283 9.551112677919019
    vertex 354.49686153087464 -2112.169348973074 6.000001429029188
  endloop
endfacet
facet normal -1.0 9.192271900398842e-10 -4.635438344280368e-10
  outer loop
    vertex 354.4968614998362 -2134.5575775407283 9.551112677919019
    vertex 354.4968614967847 -2139.169348973074 6.000001417352641
    vertex 354.4968614958727 -2134.9193489730746 9.700963311675965
  endloop
endfacet
facet normal -1.0 9.192271900398842e-10 -4.635438344280368e-10
  outer loop
    vertex 354.4968614958727 -2134.9193489730746 9.700963311675965
    vertex 354.4968614967847 -2139.169348973074 6.000001417352641
    vertex 354.4968614919713 -2135.230009144854 9.939341245572805
  endloop
endfacet
facet normal -1.0 9.192271900398842e-10 -4.635438344280368e-10
  outer loop
    vertex 354.4968614919713 -2135.230009144854 9.939341245572805
    vertex 354.4968614967847 -2139.169348973074 6.000001417352641
    vertex 354.4968614883979 -2135.468387078751 10.250001417352632
  endloop
endfacet
facet normal -1.0 9.192271900398842e-10 -4.635438344280368e-10
  outer loop
    vertex 354.4968614883979 -2135.468387078751 10.250001417352632
    vertex 354.4968614967847 -2139.169348973074 6.000001417352641
    vertex 354.49686148539604 -2135.618237712508 10.611772849698854
  endloop
endfacet
facet normal -1.0 9.192271900398842e-10 -4.635438344280368e-10
  outer loop
    vertex 354.49686148539604 -2135.618237712508 10.611772849698854
    vertex 354.4968614967847 -2139.169348973074 6.000001417352641
    vertex 354.49686148317033 -2135.669348973074 11.00000141735264
  endloop
endfacet
facet normal -1.0 9.192271900398842e-10 -4.635438344280368e-10
  outer loop
    vertex 354.49686148317033 -2135.669348973074 11.00000141735264
    vertex 354.4968614967847 -2139.169348973074 6.000001417352641
    vertex 354.49686148317033 -2135.669348973074 21.00000141735262
  endloop
endfacet
facet normal -1.0 9.192271900398842e-10 -4.635438344280368e-10
  outer loop
    vertex 354.49686153087464 -2112.169348973074 6.000001429029188
    vertex 354.4968614998362 -2134.5575775407283 9.551112677919019
    vertex 354.49686150359184 -2134.169348973074 9.500001417352621
  endloop
endfacet
facet normal -1.0 9.192271900398842e-10 -4.635438344280368e-10
  outer loop
    vertex 354.49686153087464 -2112.169348973074 6.000001429029188
    vertex 354.49686150359184 -2134.169348973074 9.500001417352621
    vertex 354.49686150688353 -2133.7811204054206 9.551112677919019
  endloop
endfacet
facet normal -1.0 9.192271900398842e-10 -4.635438344280368e-10
  outer loop
    vertex 354.49686153087464 -2112.169348973074 6.000001429029188
    vertex 354.49686150688353 -2133.7811204054206 9.551112677919019
    vertex 354.496861509487 -2133.4193489730746 9.700963311675965
  endloop
endfacet
facet normal -1.0 9.192271900398842e-10 -4.635438344280368e-10
  outer loop
    vertex 354.49686153087464 -2112.169348973074 6.000001429029188
    vertex 354.496861509487 -2133.4193489730746 9.700963311675965
    vertex 354.49686151122484 -2133.1086888012946 9.939341245572805
  endloop
endfacet
facet normal -1.0 9.192271900398842e-10 -4.635438344280368e-10
  outer loop
    vertex 354.49686153087464 -2112.169348973074 6.000001429029188
    vertex 354.49686151122484 -2133.1086888012946 9.939341245572805
    vertex 354.4968615119786 -2132.8703108673976 10.250001417352632
  endloop
endfacet
facet normal -1.0 9.192271900398842e-10 -4.635438344280368e-10
  outer loop
    vertex 354.49686153087464 -2112.169348973074 6.000001429029188
    vertex 354.4968615119786 -2132.8703108673976 10.250001417352632
    vertex 354.49686151169686 -2132.7204602336406 10.611772849698854
  endloop
endfacet
facet normal -1.0 9.192271900398842e-10 -4.635438344280368e-10
  outer loop
    vertex 354.49686153087464 -2112.169348973074 6.000001429029188
    vertex 354.49686151169686 -2132.7204602336406 10.611772849698854
    vertex 354.49686151039896 -2132.669348973074 11.00000141735264
  endloop
endfacet
facet normal -1.0 9.192271900398842e-10 -4.635438344280368e-10
  outer loop
    vertex 354.49686153087464 -2112.169348973074 6.000001429029188
    vertex 354.49686151039896 -2132.669348973074 11.00000141735264
    vertex 354.4968615123329 -2112.169348973074 26.00000142902922
  endloop
endfacet
facet normal -1.0 9.192271900398842e-10 -4.635438344280368e-10
  outer loop
    vertex 354.49686148539604 -2135.618237712508 20.611772849698834
    vertex 354.49686148317033 -2135.669348973074 11.00000141735264
    vertex 354.49686148317033 -2135.669348973074 21.00000141735262
  endloop
endfacet
facet normal -1.0 9.192271900398842e-10 -4.635438344280368e-10
  outer loop
    vertex 354.49686148317033 -2135.669348973074 11.00000141735264
    vertex 354.49686148539604 -2135.618237712508 20.611772849698834
    vertex 354.49686148187243 -2135.618237712508 11.388229985006427
  endloop
endfacet
facet normal -1.0 9.192271900398842e-10 -4.635438344280368e-10
  outer loop
    vertex 354.49686148187243 -2135.618237712508 11.388229985006427
    vertex 354.49686148539604 -2135.618237712508 20.611772849698834
    vertex 354.4968614883979 -2135.468387078751 20.25000141735261
  endloop
endfacet
facet normal -1.0 9.192271900398842e-10 -4.635438344280368e-10
  outer loop
    vertex 354.49686148187243 -2135.618237712508 11.388229985006427
    vertex 354.4968614883979 -2135.468387078751 20.25000141735261
    vertex 354.4968614815907 -2135.468387078751 11.750001417352653
  endloop
endfacet
facet normal -1.0 9.192271900398842e-10 -4.635438344280368e-10
  outer loop
    vertex 354.4968614815907 -2135.468387078751 11.750001417352653
    vertex 354.4968614883979 -2135.468387078751 20.25000141735261
    vertex 354.4968614919713 -2135.230009144854 19.939341245572788
  endloop
endfacet
facet normal -1.0 9.192271900398842e-10 -4.635438344280368e-10
  outer loop
    vertex 354.4968614815907 -2135.468387078751 11.750001417352653
    vertex 354.4968614919713 -2135.230009144854 19.939341245572788
    vertex 354.49686148234446 -2135.230009144854 12.060661589132476
  endloop
endfacet
facet normal -1.0 9.192271900398842e-10 -4.635438344280368e-10
  outer loop
    vertex 354.49686148234446 -2135.230009144854 12.060661589132476
    vertex 354.4968614919713 -2135.230009144854 19.939341245572788
    vertex 354.4968614958727 -2134.9193489730746 19.700963311675945
  endloop
endfacet
facet normal -1.0 9.192271900398842e-10 -4.635438344280368e-10
  outer loop
    vertex 354.49686148234446 -2135.230009144854 12.060661589132476
    vertex 354.4968614958727 -2134.9193489730746 19.700963311675945
    vertex 354.49686148408233 -2134.919348973074 12.299039523029316
  endloop
endfacet
facet normal -1.0 9.192271900398842e-10 -4.635438344280368e-10
  outer loop
    vertex 354.49686148408233 -2134.919348973074 12.299039523029316
    vertex 354.4968614958727 -2134.9193489730746 19.700963311675945
    vertex 354.4968614998362 -2134.5575775407283 19.551112677919
  endloop
endfacet
facet normal -1.0 9.192271900398842e-10 -4.635438344280368e-10
  outer loop
    vertex 354.49686148408233 -2134.919348973074 12.299039523029316
    vertex 354.4968614998362 -2134.5575775407283 19.551112677919
    vertex 354.4968614866858 -2134.5575775407283 12.448890156786263
  endloop
endfacet
facet normal -1.0 9.192271900398842e-10 -4.635438344280368e-10
  outer loop
    vertex 354.4968614866858 -2134.5575775407283 12.448890156786263
    vertex 354.4968614998362 -2134.5575775407283 19.551112677919
    vertex 354.49686150359184 -2134.169348973074 19.5000014173526
  endloop
endfacet
facet normal -1.0 9.192271900398842e-10 -4.635438344280368e-10
  outer loop
    vertex 354.4968614866858 -2134.5575775407283 12.448890156786263
    vertex 354.49686150359184 -2134.169348973074 19.5000014173526
    vertex 354.4968614899775 -2134.169348973074 12.50000141735266
  endloop
endfacet
facet normal -1.0 9.192271900398842e-10 -4.635438344280368e-10
  outer loop
    vertex 354.4968614899775 -2134.169348973074 12.50000141735266
    vertex 354.49686150359184 -2134.169348973074 19.5000014173526
    vertex 354.49686150688353 -2133.7811204054206 19.551112677919
  endloop
endfacet
facet normal -1.0 9.192271900398842e-10 -4.635438344280368e-10
  outer loop
    vertex 354.4968614899775 -2134.169348973074 12.50000141735266
    vertex 354.49686150688353 -2133.7811204054206 19.551112677919
    vertex 354.4968614937331 -2133.7811204054206 12.448890156786263
  endloop
endfacet
facet normal -1.0 9.192271900398842e-10 -4.635438344280368e-10
  outer loop
    vertex 354.4968614937331 -2133.7811204054206 12.448890156786263
    vertex 354.49686150688353 -2133.7811204054206 19.551112677919
    vertex 354.496861509487 -2133.4193489730746 19.700963311675945
  endloop
endfacet
facet normal -1.0 9.192271900398842e-10 -4.635438344280368e-10
  outer loop
    vertex 354.4968614937331 -2133.7811204054206 12.448890156786263
    vertex 354.496861509487 -2133.4193489730746 19.700963311675945
    vertex 354.4968614976966 -2133.419348973074 12.299039523029316
  endloop
endfacet
facet normal -1.0 9.192271900398842e-10 -4.635438344280368e-10
  outer loop
    vertex 354.4968614976966 -2133.419348973074 12.299039523029316
    vertex 354.496861509487 -2133.4193489730746 19.700963311675945
    vertex 354.49686151122484 -2133.1086888012946 19.939341245572788
  endloop
endfacet
facet normal -1.0 9.192271900398842e-10 -4.635438344280368e-10
  outer loop
    vertex 354.4968614976966 -2133.419348973074 12.299039523029316
    vertex 354.49686151122484 -2133.1086888012946 19.939341245572788
    vertex 354.49686150159806 -2133.1086888012946 12.060661589132476
  endloop
endfacet
facet normal -1.0 9.192271900398842e-10 -4.635438344280368e-10
  outer loop
    vertex 354.49686150159806 -2133.1086888012946 12.060661589132476
    vertex 354.49686151122484 -2133.1086888012946 19.939341245572788
    vertex 354.4968615119786 -2132.8703108673976 20.25000141735261
  endloop
endfacet
facet normal -1.0 9.192271900398842e-10 -4.635438344280368e-10
  outer loop
    vertex 354.49686150159806 -2133.1086888012946 12.060661589132476
    vertex 354.4968615119786 -2132.8703108673976 20.25000141735261
    vertex 354.4968615051714 -2132.8703108673976 11.750001417352651
  endloop
endfacet
facet normal -1.0 9.192271900398842e-10 -4.635438344280368e-10
  outer loop
    vertex 354.4968615051714 -2132.8703108673976 11.750001417352651
    vertex 354.4968615119786 -2132.8703108673976 20.25000141735261
    vertex 354.49686151169686 -2132.7204602336406 20.611772849698834
  endloop
endfacet
facet normal -1.0 9.192271900398842e-10 -4.635438344280368e-10
  outer loop
    vertex 354.4968615051714 -2132.8703108673976 11.750001417352651
    vertex 354.49686151169686 -2132.7204602336406 20.611772849698834
    vertex 354.49686150817325 -2132.7204602336406 11.388229985006426
  endloop
endfacet
facet normal -1.0 9.192271900398842e-10 -4.635438344280368e-10
  outer loop
    vertex 354.49686150817325 -2132.7204602336406 11.388229985006426
    vertex 354.49686151169686 -2132.7204602336406 20.611772849698834
    vertex 354.49686151039896 -2132.669348973074 21.00000141735262
  endloop
endfacet
facet normal -1.0 9.192271900398842e-10 -4.635438344280368e-10
  outer loop
    vertex 354.49686150817325 -2132.7204602336406 11.388229985006426
    vertex 354.49686151039896 -2132.669348973074 21.00000141735262
    vertex 354.49686151039896 -2132.669348973074 11.00000141735264
  endloop
endfacet
facet normal -9.192271900398842e-10 -1.0 -8.52204192763195e-19
  outer loop
    vertex 354.49686153087464 -2112.169348973074 6.000001429029188
    vertex 337.4968615123329 -2112.169348955602 26.000001417886494
    vertex 337.49686153087464 -2112.169348955602 6.000001417886464
  endloop
endfacet
facet normal -9.192271900398842e-10 -1.0 -8.52204192763195e-19
  outer loop
    vertex 337.4968615123329 -2112.169348955602 26.000001417886494
    vertex 354.49686153087464 -2112.169348973074 6.000001429029188
    vertex 354.4968615123329 -2112.169348973074 26.00000142902922
  endloop
endfacet
facet normal -4.882781642096555e-10 1.0 4.0409593268704193e-10
  outer loop
    vertex 337.4968615138446 -2086.1693501504683 26.000001425542
    vertex 342.4968605977846 -2086.16935014035 6.000001449884871
    vertex 337.4968615138446 -2086.16935014182 6.000001437106094
  endloop
endfacet
facet normal -4.882781642096555e-10 1.0 4.0409593268704193e-10
  outer loop
    vertex 342.4968605977846 -2086.16935014035 6.000001449884871
    vertex 337.4968615138446 -2086.1693501504683 26.000001425542
    vertex 342.4968605977846 -2086.169350147299 26.000001449884905
  endloop
endfacet
facet normal 1.0 -3.585373701894405e-10 -1.245694775799177e-19
  outer loop
    vertex 342.496860590614 -2106.1693501403515 6.000001439461736
    vertex 342.4968605977846 -2086.169350147299 26.000001449884905
    vertex 342.496860590614 -2106.1693501473 26.000001439461748
  endloop
endfacet
facet normal 1.0 -3.585373701894405e-10 -1.245694775799177e-19
  outer loop
    vertex 342.4968605977846 -2086.169350147299 26.000001449884905
    vertex 342.496860590614 -2106.1693501403515 6.000001439461736
    vertex 342.4968605977846 -2086.16935014035 6.000001449884871
  endloop
endfacet
facet normal -5.160785018659468e-10 1.0 5.031840833760574e-10
  outer loop
    vertex 342.496860590614 -2106.1693501473 26.000001439461748
    vertex 362.4968606277278 -2106.1693501280647 6.0000014990948705
    vertex 342.496860590614 -2106.1693501403515 6.000001439461736
  endloop
endfacet
facet normal -5.160785018659468e-10 1.0 5.031840833760574e-10
  outer loop
    vertex 362.4968606277278 -2106.1693501280647 6.0000014990948705
    vertex 342.496860590614 -2106.1693501473 26.000001439461748
    vertex 347.49686059061395 -2106.1693501470077 26.0000014494006
  endloop
endfacet
facet normal -5.160785018659468e-10 1.0 5.031840833760574e-10
  outer loop
    vertex 362.4968606277278 -2106.1693501280647 6.0000014990948705
    vertex 347.49686059061395 -2106.1693501470077 26.0000014494006
    vertex 362.496860590614 -2106.1693501419622 26.000001499094868
  endloop
endfacet
facet normal -1.0 -3.6995252914298975e-10 -2.716489504750416e-09
  outer loop
    vertex 314.4968615244261 -2091.16935016273 26.000001371049937
    vertex 314.49686158060564 -2096.169350154081 6.000001368887543
    vertex 314.4968615215468 -2096.16935016273 26.00000136888761
  endloop
endfacet
facet normal -1.0 -3.6995252914298975e-10 -2.716489504750416e-09
  outer loop
    vertex 314.49686158060564 -2096.169350154081 6.000001368887543
    vertex 314.4968615244261 -2091.16935016273 26.000001371049937
    vertex 314.4968615740268 -2091.1693501540817 6.000001372942889
  endloop
endfacet
endsolid MAKEROBOT 4WD TT
